<?xml version="1.0" encoding="utf-8"?>
<!-- Generator: Adobe Illustrator 22.1.0, SVG Export Plug-In . SVG Version: 6.00 Build 0)  -->
<svg version="1.1" id="Calque_1" xmlns="http://www.w3.org/2000/svg" xmlns:xlink="http://www.w3.org/1999/xlink" x="0px" y="0px"
	 viewBox="0 0 78.4 93.1" style="enable-background:new 0 0 78.4 93.1;" xml:space="preserve">
<style type="text/css">
	.st0{fill:#213A6C;}
</style>
<g>
	<g>
		<rect x="68.1" y="42.5" transform="matrix(0.7071 -0.7072 0.7072 0.7071 -13.3686 62.785)" class="st0" width="2" height="10"/>
	</g>
	<g>
		<path class="st0" d="M51,62.7c-0.8,0.8-0.8,2.1,0,2.8l0.1,0.1c0.8,0.8,2.1,0.8,2.8,0l2.7-2.7l11.1-11.1l1.4-1.4L67.7,49l-0.1-0.1
			l-1.4-1.4l-1.4,1.4L51,62.7z"/>
	</g>
	<g>
		<path class="st0" d="M70.4,51.8L70.4,51.8l-0.7-0.7L69,51.8L57.2,63.6L53.8,67c-0.3,0.3-0.3,0.7-0.2,1l-3.7,1.1l-2.4-2.4l1.1-3.7
			c0.4,0.1,0.8,0.1,1.1-0.2l3.4-3.4l0,0l12.6-12.6L65,46.1l0,0l0,0l-0.7-0.7L51.6,58l0,0l-3.4,3.4c0,0,0,0.1-0.1,0.1
			c-0.1,0.1-0.2,0.2-0.2,0.3l-2.7,9c-0.1,0.2,0,0.4,0.1,0.5s0.3,0.2,0.5,0.1l9-2.7l0,0c0.1,0,0.3-0.1,0.4-0.2l3.4-3.4l11.9-11.9
			l0.7-0.7L70.4,51.8L70.4,51.8z"/>
	</g>
	<g>
		<path class="st0" d="M77.1,43.8l-4.2-4.2c-0.8-0.8-2.1-0.8-2.8,0l-1.7,1.7l0,0L67,42.7l1.4,1.4l4.2,4.2l1.4,1.4l1.4-1.4l0.8-0.8
			l0.8-0.8C77.9,45.8,77.9,44.5,77.1,43.8z"/>
	</g>
</g>
<g>
	<g>
		<g>
			<path class="st0" d="M69,35.8V20.2c0-0.1,0-0.1,0-0.2c0-0.5-0.2-0.9-0.6-1.2l-8.9-8.9L55,5.4c-0.1-0.1-0.2-0.2-0.3-0.2h-0.1
				C54.5,5.1,54.2,5,54,5H11.5C9.6,5,8,6.6,8,8.5v76.1c0,1.9,1.6,3.5,3.5,3.5h54c1.9,0,3.5-1.6,3.5-3.5V59.5l-3,3v22.1
				c0,0.3-0.2,0.5-0.5,0.5h-54c-0.3,0-0.5-0.2-0.5-0.5V8.5C11,8.2,11.2,8,11.5,8h41v10c0,1.9,1.6,3.5,3.5,3.5h10v17.3L69,35.8z
				 M55.5,18v-7.9l2.4,2.4l6,6H56C55.7,18.5,55.5,18.3,55.5,18z"/>
		</g>
	</g>
	<g>
		<g>
			<path class="st0" d="M26.6,22h20.3c1.5,0,2.7-1.2,2.7-2.7s-1.2-2.7-2.7-2.7H26.6c-1.5,0-2.7,1.2-2.7,2.7S25.1,22,26.6,22z"/>
		</g>
	</g>
	<g>
		<g>
			<path class="st0" d="M49.6,54.2c0-1.5-1.2-2.7-2.7-2.7H26.6c-1.5,0-2.7,1.2-2.7,2.7s1.2,2.7,2.7,2.7h20.3
				C48.4,56.9,49.6,55.7,49.6,54.2z"/>
		</g>
	</g>
	<g>
		<g>
			<path class="st0" d="M58.6,28.2h-32c-1.5,0-2.7,1.2-2.7,2.7c0,1.5,1.2,2.7,2.7,2.7h32c1.5,0,2.7-1.2,2.7-2.7
				C61.3,29.4,60.1,28.2,58.6,28.2z"/>
		</g>
	</g>
	<g>
		<g>
			<path class="st0" d="M61.3,42.6c0-1.5-1.2-2.7-2.7-2.7h-32c-1.5,0-2.7,1.2-2.7,2.7s1.2,2.7,2.7,2.7h32
				C60.1,45.2,61.3,44,61.3,42.6z"/>
		</g>
	</g>
	<g>
		<path class="st0" d="M20,23h-5.4c-0.6,0-1-0.4-1-1v-5.4c0-0.6,0.4-1,1-1H20c0.6,0,1,0.4,1,1V22C21,22.5,20.5,23,20,23z M15.6,21
			H19v-3.4h-3.4V21z"/>
	</g>
	<path class="st0" d="M20,27.2h-5.4c-0.6,0-1,0.4-1,1v5.4c0,0.6,0.4,1,1,1H20c0.6,0,1-0.4,1-1v-5.4C21,27.7,20.5,27.2,20,27.2z"/>
	<g>
		<path class="st0" d="M20,46.2h-5.4c-0.6,0-1-0.4-1-1v-5.4c0-0.6,0.4-1,1-1H20c0.6,0,1,0.4,1,1v5.4C21,45.8,20.5,46.2,20,46.2z
			 M15.6,44.2H19v-3.4h-3.4V44.2z"/>
	</g>
	<path class="st0" d="M20,50.5h-5.4c-0.6,0-1,0.4-1,1v5.4c0,0.6,0.4,1,1,1H20c0.6,0,1-0.4,1-1v-5.4C21,51,20.5,50.5,20,50.5z"/>
</g>
</svg>
