<?xml version="1.0" encoding="utf-8"?>
<!-- Generator: Adobe Illustrator 22.1.0, SVG Export Plug-In . SVG Version: 6.00 Build 0)  -->
<svg version="1.1" id="Calque_1" xmlns="http://www.w3.org/2000/svg" xmlns:xlink="http://www.w3.org/1999/xlink" x="0px" y="0px"
	 viewBox="0 0 100 108" style="enable-background:new 0 0 100 108;" xml:space="preserve">
<style type="text/css">
	.st0{fill:none;}
	.st1{fill:#013A6C;}
</style>
<rect y="4" class="st0" width="100" height="100"/>
<g>
	<path class="st1" d="M42.1,44.5c-1.9,0-3.4,1.5-3.4,3.4v28c0,1.9,1.5,3.4,3.4,3.4s3.4-1.5,3.4-3.4V48C45.6,46.1,44,44.5,42.1,44.5z
		"/>
	<path class="st1" d="M59.2,44.5c-1.9,0-3.4,1.5-3.4,3.4v28c0,1.9,1.5,3.4,3.4,3.4s3.4-1.5,3.4-3.4V48
		C62.6,46.1,61.1,44.5,59.2,44.5z"/>
	<path class="st1" d="M85.2,86.2V28.8h3.4c1.9,0,3.4-1.5,3.4-3.4c0-1.9-1.5-3.4-3.4-3.4H71.2v-5.9C71.2,10.5,66.7,6,61.1,6H39.7
		c-5.6,0-10.1,4.5-10.1,10.1V22H11.4C9.5,22,8,23.5,8,25.4c0,1.9,1.5,3.4,3.4,3.4h4.2v57.4c0,8.7,7.1,15.8,15.8,15.8h38
		C78.1,102,85.2,94.9,85.2,86.2z M36.4,16.1c0-1.8,1.5-3.3,3.3-3.3h21.4c1.8,0,3.3,1.5,3.3,3.3V22h-28V16.1z M22.4,86.2V29.4h56
		v56.8c0,5-4,9-9,9h-38C26.4,95.2,22.4,91.1,22.4,86.2z"/>
</g>
</svg>
