<svg id="Calque_1" data-name="Calque 1" xmlns="http://www.w3.org/2000/svg" viewBox="0 0 105.7 97.1"><defs><style>.cls-1,.cls-6{fill:#213a6c;}.cls-2{fill:#013a6c;}.cls-3{fill:#fff;}.cls-4,.cls-5{fill:none;}.cls-4{stroke:#013a6c;stroke-miterlimit:10;stroke-width:0.5px;}.cls-6{font-size:19px;font-family:MoonFlowerBold, Moon Flower Bold;}</style></defs><title>logo_sleep</title><g id="Calque_1-2" data-name="Calque 1"><g id="_Groupe_" data-name="&lt;Groupe&gt;"><polygon class="cls-1" points="101 56.9 101 58.5 96.2 58.5 96.2 57 98.7 53.7 96.2 53.7 96.2 52.1 101 52.1 101 53.6 98.4 56.9 101 56.9"/><polygon class="cls-1" points="93 52 93 53.2 89.4 53.2 89.4 52.1 91.3 49.6 89.4 49.6 89.4 48.4 93 48.4 93 49.5 91.1 52 93 52"/><path class="cls-1" d="M88.9,64.6a16.49,16.49,0,0,1,1.3,6.3A16.2,16.2,0,0,1,74,87.1a16.49,16.49,0,0,1-6.3-1.3,16.15,16.15,0,0,1-8.3-21.9l3.3.8a1.08,1.08,0,0,0-.2.8,1,1,0,0,0,.9.7l.2,1.5h-.1a.45.45,0,0,0-.3.6A4.56,4.56,0,0,0,64.7,71a6.71,6.71,0,0,0,1.4.9,5,5,0,0,0,1.3.3h.8a1.27,1.27,0,0,0,.6-.1c.3-.1.5-.2.8-.3.1,0,.2-.1.3-.2s.3-.2.5-.3h0c.2-.1.3-.2.5-.3a4.56,4.56,0,0,0,1.5-2.7v-.1h3v.1A4.56,4.56,0,0,0,76.9,71a4.19,4.19,0,0,0,1.4.9.6.6,0,0,0,.4.1c.3.1.5.1.8.2h.4a3.08,3.08,0,0,0,1-.1,3.6,3.6,0,0,0,2-1.1,4.56,4.56,0,0,0,1.5-2.7.44.44,0,0,0-.4-.6.1.1,0,0,0-.1-.1l.4-1.4h.2a.76.76,0,0,0,.4-.1H85a.9.9,0,0,0,.6-.6,1.08,1.08,0,0,0-.1-.6Zm-10.3,14A4.79,4.79,0,0,0,74,73.7h-.6a6.11,6.11,0,0,0-1.3.3H72a5,5,0,0,0-2.8,4.5,4.79,4.79,0,0,0,4.6,4.9h.1A4.66,4.66,0,0,0,78.6,78.6Z"/><path class="cls-2" d="M88.9,64.6l-3.6.3v-.1Z"/><path class="cls-1" d="M88.9,64.6l-3.6.2a1,1,0,0,0-.6-.5l-6-1.6a1,1,0,0,0-1.1.6,1.27,1.27,0,0,0,.1.6V64a.9.9,0,0,0,.6.6l5.9,1.6-.4,1.4c-.2,0-.5.2-.5.4a3.32,3.32,0,0,1-1.5,1.6,6.89,6.89,0,0,1-.8.3,5,5,0,0,1-1.2.2,3.4,3.4,0,0,1-1-.1,4.18,4.18,0,0,1-1-.4A3.86,3.86,0,0,1,76.3,68c-.1-.3-.4-.5-.6-.4a.66.66,0,0,0-.4.5h-3c0-.1-.1-.1-.1-.2h0c-.1-.2-.2-.3-.4-.3a.44.44,0,0,0-.6.4,3.32,3.32,0,0,1-1.5,1.6,6.89,6.89,0,0,1-.8.3,5,5,0,0,1-1.2.2,3.4,3.4,0,0,1-1-.1,4.18,4.18,0,0,1-1-.4,6.2,6.2,0,0,1-1.4-1.4h0c0-.1-.1-.2-.2-.3a.68.68,0,0,0-.5-.3l-.2-1.4h.4l6-1.6a1,1,0,0,0,.6-1.1.84.84,0,0,0-.7-.7h0a.64.64,0,0,0-.6,0l-6,1.6a.85.85,0,0,0-.5.3L59.4,64h0a16.33,16.33,0,0,1,13.4-9.2h2.3a17,17,0,0,1,7.4,2.4A16,16,0,0,1,88.9,64.6Z"/><path class="cls-1" d="M74,52.9a18.1,18.1,0,1,1-18.1,18A18.1,18.1,0,0,1,74,52.9Zm16.2,18a16.49,16.49,0,0,0-1.3-6.3,16.35,16.35,0,0,0-13.8-9.8H72.8A16.28,16.28,0,0,0,57.7,71a16.13,16.13,0,0,0,10,14.9,16.15,16.15,0,0,0,22.5-15Z"/><polygon class="cls-1" points="86.2 45.9 86.2 47.1 84.5 48.5 86.1 48.5 86.1 49.8 82.9 49.8 82.9 48.6 84.4 47.2 83 47.2 83 45.9 86.2 45.9"/><path class="cls-2" d="M85.3,64.9a1.08,1.08,0,0,1,.1.6.9.9,0,0,1-.6.6,1.21,1.21,0,0,0,.5-.5.88.88,0,0,0-.1-.7Z"/><path class="cls-3" d="M85.3,64.9h-.1a.88.88,0,0,1,.1.7.82.82,0,0,1-.5.5h-.7V66l-6-1.6a1,1,0,0,1-.5-.4v-.6a.8.8,0,0,1,1.1-.6l6,1.6a1.33,1.33,0,0,1,.6.5Z"/><path class="cls-2" d="M84.7,64.3a1,1,0,0,1,.6.5c-.2-.2-.4-.3-.5-.4l-6-1.6a.8.8,0,0,0-1.1.6.45.45,0,0,0,0,.5,1.27,1.27,0,0,1-.1-.6,1,1,0,0,1,1.1-.6Z"/><path class="cls-2" d="M84.3,66.1a.45.45,0,0,0,.5,0c-.1.1-.2.1-.4.1h-.2l-.4,1.4v.1a.66.66,0,0,0-.5.4,3.86,3.86,0,0,1-1.5,1.6c-.3.1-.5.2-.8.3a2.54,2.54,0,0,1-1.2.2,3.4,3.4,0,0,1-1-.1,3,3,0,0,1-1-.4,3.32,3.32,0,0,1-1.5-1.6.44.44,0,0,0-.6-.4.66.66,0,0,0-.4.5h-3V68h3a.66.66,0,0,1,.4-.5c.2-.1.5.1.6.4a3.86,3.86,0,0,0,1.5,1.6,4.18,4.18,0,0,0,1,.4,3.4,3.4,0,0,0,1,.1,5,5,0,0,0,1.2-.2,6.89,6.89,0,0,0,.8-.3,3.32,3.32,0,0,0,1.5-1.6c0-.2.3-.4.5-.4l.4-1.4Z"/><path class="cls-2" d="M84.2,66h0l-5.9-1.5a.9.9,0,0,1-.6-.6.66.66,0,0,0,.5.4Z"/><path class="cls-3" d="M83.9,67.7a.62.62,0,0,1,.4.6A4.56,4.56,0,0,1,82.8,71a4.9,4.9,0,0,1-2,1.1,3.08,3.08,0,0,1-1,.1h-.4a2.35,2.35,0,0,1-.8-.2c-.1,0-.3-.1-.4-.1a6.71,6.71,0,0,1-1.4-.9,4.56,4.56,0,0,1-1.5-2.7v-.1a.66.66,0,0,1,.4-.5.44.44,0,0,1,.6.4,3.32,3.32,0,0,0,1.5,1.6,3,3,0,0,0,1,.4,3.4,3.4,0,0,0,1,.1A2.54,2.54,0,0,0,81,70c.3-.1.5-.2.8-.3a3.86,3.86,0,0,0,1.5-1.6.68.68,0,0,1,.6-.4Z"/><path class="cls-3" d="M83.9,67.7h0c-.1,0-.1-.1,0,0C83.8,67.6,83.9,67.6,83.9,67.7Z"/><path class="cls-3" d="M78.6,72c.3.1.6.1.8.2C79.1,72.1,78.8,72.1,78.6,72Z"/><path class="cls-2" d="M74,73.7a4.91,4.91,0,0,1,0,9.8h-.1a4.91,4.91,0,0,0,.1-9.8Z"/><path class="cls-3" d="M73.9,73.7a4.91,4.91,0,0,1,0,9.8,4.71,4.71,0,0,1-4.5-4.9,4.77,4.77,0,0,1,2.7-4.5h.1a2.77,2.77,0,0,1,1.3-.3A.6.6,0,0,1,73.9,73.7ZM75.5,81A3,3,0,0,0,74,75.5a2.61,2.61,0,0,0-2.2,1.2l-.1.1a3.51,3.51,0,0,0-.6,1.8,2.85,2.85,0,0,0,2.8,3,2.45,2.45,0,0,0,1.6-.6Z"/><path class="cls-2" d="M76.8,71a6.71,6.71,0,0,0,1.4.9A4.19,4.19,0,0,1,76.8,71Z"/><path class="cls-3" d="M76.8,78.5A2.86,2.86,0,0,1,75.5,81a3.13,3.13,0,0,0,1.2-2.4,2.85,2.85,0,0,0-2.8-3,3,3,0,0,0-2.2,1.1,2.75,2.75,0,0,1,2.2-1.2A3,3,0,0,1,76.8,78.5Z"/><path class="cls-3" d="M73.9,75.6a2.85,2.85,0,0,1,2.8,3A3,3,0,0,1,75.5,81h0a2.41,2.41,0,0,1-1.5.4,3,3,0,0,1-2.8-3,3.37,3.37,0,0,1,.5-1.7.1.1,0,0,1,.1-.1A2.66,2.66,0,0,1,73.9,75.6Z"/><path class="cls-2" d="M72.3,68.2h0A4.53,4.53,0,0,1,70.8,71c-.2.1-.3.2-.5.3l.3-.3a4.56,4.56,0,0,0,1.5-2.7v-.1Z"/><path class="cls-3" d="M72.3,68v.2h-.1v.1A4.56,4.56,0,0,1,70.7,71l-.3.3h0c-.2.1-.3.2-.5.3s-.2.1-.3.2l-.9.3a4.33,4.33,0,0,1-.5.1h-.8a2.66,2.66,0,0,1-1.2-.3,4.19,4.19,0,0,1-1.4-.9,4.56,4.56,0,0,1-1.5-2.7.48.48,0,0,1,.2-.6h.2c.2-.1.3,0,.4.1a.1.1,0,0,0,.1.1c0,.1.1.1.1.2h0a3.32,3.32,0,0,0,1.5,1.6,3,3,0,0,0,1,.4,3.4,3.4,0,0,0,1,.1A2.54,2.54,0,0,0,69,70c.3-.1.5-.2.8-.3a3.86,3.86,0,0,0,1.5-1.6c.1-.3.4-.5.6-.4a.37.37,0,0,1,.3.1h0c0,.1,0,.1.1.2Z"/><path class="cls-3" d="M72.3,68h0c-.1-.1-.1-.1-.1-.2C72.2,67.9,72.2,67.9,72.3,68Z"/><path class="cls-2" d="M72.1,67.8a.37.37,0,0,0-.3-.1c-.2-.1-.5.1-.6.4a3.86,3.86,0,0,1-1.5,1.6c-.3.1-.5.2-.8.3a2.54,2.54,0,0,1-1.2.2,3.4,3.4,0,0,1-1-.1,3,3,0,0,1-1-.4,3.32,3.32,0,0,1-1.5-1.6,3.76,3.76,0,0,0,1.4,1.4,4.18,4.18,0,0,0,1,.4,3.4,3.4,0,0,0,1,.1,5,5,0,0,0,1.2-.2,6.89,6.89,0,0,0,.8-.3,3.32,3.32,0,0,0,1.5-1.6.44.44,0,0,1,.6-.4C71.9,67.5,72.1,67.6,72.1,67.8Z"/><path class="cls-2" d="M70.4,63.4a1,1,0,0,1-.6,1.1l-6,1.6h-.4V66h.2l6-1.6a.8.8,0,0,0,.6-1.1c-.1-.3-.2-.5-.5-.6A.84.84,0,0,1,70.4,63.4Z"/><path class="cls-3" d="M70.2,63.3a.8.8,0,0,1-.6,1.1l-6,1.6h-.2v.1a1,1,0,0,1-.7-.7.78.78,0,0,1,.2-.8.55.55,0,0,1,.5-.3l6-1.6h.3A1,1,0,0,1,70.2,63.3Z"/><path class="cls-2" d="M69.7,62.7h-.3l-6,1.6a.55.55,0,0,0-.5.3.78.78,0,0,0-.2.8,1.21,1.21,0,0,0,.7.7l.2,1.4c.2-.1.4,0,.5.3a.6.6,0,0,0-.4-.1h-.1l-.2-1.5a1,1,0,0,1-.9-.7,1.08,1.08,0,0,1,.2-.8l-3.3-.8,3.2.7a.85.85,0,0,1,.5-.3l6-1.6A.64.64,0,0,1,69.7,62.7Z"/><path class="cls-3" d="M69.5,71.8a6.89,6.89,0,0,1-.8.3,1.27,1.27,0,0,1-.6.1.75.75,0,0,0,.5-.1A4.65,4.65,0,0,0,69.5,71.8Z"/><path class="cls-2" d="M72.8,54.7a16.14,16.14,0,0,0-13.4,9.2h-.1A16.29,16.29,0,0,1,72.8,54.7Z"/><path class="cls-3" d="M64.3,68.1c0-.1-.1-.1-.1-.2a.1.1,0,0,0-.1-.1C64.2,67.8,64.3,67.9,64.3,68.1Z"/><path class="cls-2" d="M57.8,70.9a16,16,0,0,0,9.9,14.9,15.84,15.84,0,0,1-9.9-14.9,15,15,0,0,1,1.5-7h.1A16.35,16.35,0,0,0,57.8,70.9Z"/></g><path class="cls-4" d="M49.6,52.5c14-3,24.1-11.9,24.1-22.4,0-13-15.5-23.5-34.7-23.5S4.3,17.1,4.3,30.1,19.8,53.6,39,53.6a43.61,43.61,0,0,0,5.1-.3"/><path class="cls-4" d="M44.1,53.4c1.3,6,9.8,8.8,9.8,8.8s-5.5-7.3-4.3-9.8"/><rect class="cls-5" x="-13.4" y="12.7" width="102.3" height="47.9"/></g><text class="cls-6" transform="translate(13 35.41)">I’m boring</text></svg>