<?xml version="1.0" encoding="utf-8"?>
<!-- Generator: Adobe Illustrator 22.1.0, SVG Export Plug-In . SVG Version: 6.00 Build 0)  -->
<svg version="1.1" id="Calque_1" xmlns="http://www.w3.org/2000/svg" xmlns:xlink="http://www.w3.org/1999/xlink" x="0px" y="0px"
	 viewBox="0 0 90 85.5" style="enable-background:new 0 0 90 85.5;" xml:space="preserve">
<style type="text/css">
	.st0{fill:#013A6C;}
</style>
<g>
	<path class="st0" d="M74.5,11.7C63.4,24.6,52.3,37.5,41.2,50.5c-4.3-4.8-8.7-9.7-13-14.5c-2.2-2.4-5.7,1.1-3.5,3.5
		c4.9,5.5,9.9,11,14.8,16.5c0.9,1,2.7,1,3.5,0c11.7-13.6,23.3-27.2,35-40.8C80.1,12.8,76.6,9.3,74.5,11.7z"/>
	<path class="st0" d="M70.4,33.5c4.2,13.7-1.3,28.5-14.2,35.1c-11.6,5.9-26.2,3-34.7-6.8c-8.6-9.8-9.4-24.6-2-35.3
		c8.6-12.5,25.3-15.7,38.4-8.4c2.8,1.6,5.3-2.7,2.5-4.3C36.8,0.6,6.6,18.8,9.5,46.4c2.7,25.4,32.8,39.1,53.6,23.8
		c11.9-8.8,16.4-24,12.1-38C74.2,29.1,69.4,30.4,70.4,33.5z"/>
</g>
</svg>
