<?xml version="1.0" encoding="utf-8"?>
<!-- Generator: Adobe Illustrator 22.1.0, SVG Export Plug-In . SVG Version: 6.00 Build 0)  -->
<svg version="1.1" id="Calque_1" xmlns:serif="http://www.serif.com/"
	 xmlns="http://www.w3.org/2000/svg" xmlns:xlink="http://www.w3.org/1999/xlink" x="0px" y="0px" viewBox="0 0 46.1 46.1"
	 style="enable-background:new 0 0 46.1 46.1;" xml:space="preserve">
<style type="text/css">
	.st0{fill:#013A6C;}
	.st1{fill:#FFFFFF;}
</style>
<path class="st0" d="M33.5,11.4h1.3v1h-2.7v-1l1.2-1.1h-1.2v-1h2.6v1L33.5,11.4z"/>
<path class="st0" d="M37.9,10.3h1.6v1h-2.9v-0.9l1.6-2h-1.6v-1h2.9v0.9L37.9,10.3z"/>
<path class="st0" d="M42.6,9.4h2.1v1.3h-3.9V9.5l2.1-2.7h-2.1V5.5h3.9v1.2L42.6,9.4z"/>
<g id="XMLID_1_">
	<g>
		<path class="st1" d="M34.5,19.5c0.7,1.6,1,3.3,1,5.2C35.5,32,29.6,38,22.2,38S9,32,9,24.7c0-2.1,0.5-4,1.3-5.7l2.8,0.7
			c-0.1,0.2-0.2,0.4-0.1,0.6c0.1,0.3,0.4,0.6,0.7,0.6l0.2,1.2c-0.2,0.1-0.4,0.3-0.3,0.5c0.1,0.9,0.6,1.6,1.2,2.2
			c0.3,0.3,0.7,0.5,1.1,0.7c0.4,0.2,0.9,0.2,1.3,0.2c0.3,0,0.5,0,0.8-0.1c0.6-0.1,1.2-0.4,1.6-0.9c0.6-0.6,1.1-1.3,1.2-2.2
			c0,0,0-0.1,0-0.1l2.5,0c0,0,0,0.1,0,0.1c0.1,0.9,0.6,1.6,1.2,2.2c0.3,0.3,0.7,0.5,1.1,0.7c0.4,0.2,0.9,0.2,1.3,0.2
			c0.3,0,0.5,0,0.8-0.1c0.6-0.1,1.2-0.4,1.6-0.9c0.6-0.6,1.1-1.3,1.2-2.2c0.1-0.2-0.1-0.5-0.3-0.5c0,0-0.1,0-0.1,0l0.3-1.2h0
			c0.4,0.1,0.8-0.1,0.9-0.5c0-0.2,0-0.4-0.1-0.6L34.5,19.5z M26,30.9c0-2.2-1.7-4-3.8-4s-3.8,1.8-3.8,4c0,2.2,1.7,4,3.8,4
			S26,33.2,26,30.9z"/>
		<path class="st1" d="M34.5,19.5l-3,0.2c-0.1-0.2-0.3-0.3-0.5-0.4L26.1,18c-0.4-0.1-0.8,0.1-0.9,0.5c-0.1,0.4,0.1,0.8,0.5,0.9
			l4.9,1.3L30.3,22c-0.2,0-0.4,0.1-0.4,0.3c-0.2,0.6-0.7,1-1.2,1.3c-0.2,0.1-0.4,0.2-0.6,0.3c-0.3,0.1-0.6,0.1-1,0.1
			c-0.3,0-0.6,0-0.8-0.1c-0.3-0.1-0.6-0.2-0.8-0.3c-0.5-0.3-1-0.8-1.2-1.3c-0.1-0.2-0.3-0.4-0.5-0.3c-0.2,0-0.3,0.2-0.3,0.4l-2.5,0
			c0-0.2-0.1-0.4-0.3-0.4c-0.2-0.1-0.5,0.1-0.5,0.3c-0.2,0.6-0.7,1-1.2,1.3c-0.2,0.1-0.4,0.2-0.6,0.3c-0.3,0.1-0.6,0.1-1,0.1
			c-0.3,0-0.6,0-0.8-0.1c-0.3-0.1-0.6-0.2-0.8-0.3c-0.5-0.3-1-0.8-1.2-1.3c-0.1-0.2-0.3-0.4-0.5-0.3l-0.2-1.2c0.1,0,0.1,0,0.2,0
			l4.9-1.3c0.4-0.1,0.6-0.5,0.5-0.9c-0.1-0.4-0.5-0.6-0.9-0.5l-4.9,1.3c-0.2,0-0.3,0.1-0.4,0.3L10.3,19c2.1-4.4,6.7-7.5,11.9-7.5
			C27.7,11.5,32.4,14.8,34.5,19.5z"/>
		<path class="st0" d="M22.2,10C30.4,10,37,16.6,37,24.7c0,8.2-6.6,14.8-14.8,14.8S7.5,32.9,7.5,24.7C7.5,16.6,14.1,10,22.2,10z
			 M35.5,24.7c0-1.8-0.4-3.6-1-5.2c-2-4.8-6.7-8.1-12.2-8.1c-5.2,0-9.8,3.1-11.9,7.5C9.5,20.7,9,22.6,9,24.7C9,32,14.9,38,22.2,38
			S35.5,32,35.5,24.7z"/>
		<path class="st0" d="M31.5,19.7c0.1,0.2,0.1,0.4,0.1,0.6c-0.1,0.4-0.5,0.6-0.9,0.5h0l-4.9-1.3c-0.4-0.1-0.6-0.5-0.5-0.9
			c0.1-0.4,0.5-0.6,0.9-0.5l4.9,1.3C31.2,19.4,31.4,19.6,31.5,19.7z"/>
		<path class="st0" d="M30.4,22c0.2,0.1,0.4,0.3,0.3,0.5c-0.1,0.9-0.6,1.6-1.2,2.2c-0.4,0.4-1,0.7-1.6,0.9c-0.3,0.1-0.5,0.1-0.8,0.1
			c-0.5,0-0.9-0.1-1.3-0.2c-0.4-0.2-0.8-0.4-1.1-0.7c-0.6-0.6-1.1-1.3-1.2-2.2c0,0,0-0.1,0-0.1c0-0.2,0.1-0.4,0.3-0.4
			c0.2-0.1,0.5,0.1,0.5,0.3c0.2,0.6,0.7,1,1.2,1.3c0.2,0.1,0.5,0.2,0.8,0.3c0.3,0.1,0.5,0.1,0.8,0.1c0.4,0,0.7,0,1-0.1
			c0.2-0.1,0.4-0.2,0.6-0.3c0.5-0.3,1-0.8,1.2-1.3c0-0.2,0.2-0.3,0.4-0.3C30.3,22,30.4,22,30.4,22z"/>
		<path class="st0" d="M22.2,27c2.1,0,3.8,1.8,3.8,4c0,2.2-1.7,4-3.8,4s-3.8-1.8-3.8-4C18.5,28.7,20.2,27,22.2,27z M24.5,30.9
			c0-1.4-1-2.5-2.2-2.5c-1.3,0-2.2,1.1-2.2,2.5c0,1.4,1,2.5,2.2,2.5C23.5,33.4,24.5,32.3,24.5,30.9z"/>
		<path class="st0" d="M20.9,22.5c0,0,0,0.1,0,0.1c-0.1,0.9-0.6,1.6-1.2,2.2c-0.4,0.4-1,0.7-1.6,0.9c-0.3,0.1-0.5,0.1-0.8,0.1
			c-0.5,0-0.9-0.1-1.3-0.2c-0.4-0.2-0.8-0.4-1.1-0.7c-0.6-0.6-1.1-1.3-1.2-2.2c-0.1-0.2,0.1-0.5,0.3-0.5c0.2-0.1,0.5,0.1,0.5,0.3
			c0.2,0.6,0.7,1,1.2,1.3c0.2,0.1,0.5,0.2,0.8,0.3c0.3,0.1,0.5,0.1,0.8,0.1c0.4,0,0.7,0,1-0.1c0.2-0.1,0.4-0.2,0.6-0.3
			c0.5-0.3,1-0.8,1.2-1.3c0.1-0.2,0.3-0.4,0.5-0.3C20.7,22.1,20.9,22.3,20.9,22.5z"/>
		<path class="st0" d="M19.3,18.6c0.1,0.4-0.1,0.8-0.5,0.9l-4.9,1.3c-0.1,0-0.1,0-0.2,0c-0.3,0-0.6-0.2-0.7-0.6
			c-0.1-0.2,0-0.5,0.1-0.6c0.1-0.1,0.2-0.2,0.4-0.3l4.9-1.3C18.8,17.9,19.2,18.2,19.3,18.6z"/>
	</g>
</g>
</svg>
