<svg id="Calque_1" data-name="Calque 1" xmlns="http://www.w3.org/2000/svg" viewBox="0 0 100 108"><defs><style>.cls-1{fill:#013a6c;}.cls-2{fill:none;stroke:#013a6c;stroke-miterlimit:10;}</style></defs><title>noun_Delete_blue</title><path class="cls-1" d="M78.4,29.4V86.2a9,9,0,0,1-9,9h-38a9,9,0,0,1-9-9V29.4ZM62.6,75.9V48a3.46,3.46,0,0,0-3.4-3.5,3.37,3.37,0,0,0-3.4,3.4v28a3.4,3.4,0,1,0,6.8,0Zm-17.1,0V48a3.4,3.4,0,1,0-6.8-.1v28a3.4,3.4,0,0,0,6.8,0Z"/><path class="cls-1" d="M64.4,16.1V22h-28V16.1a3.33,3.33,0,0,1,3.3-3.3H61.1A3.33,3.33,0,0,1,64.4,16.1Z"/><path class="cls-2" d="M42.1,44.5a3.37,3.37,0,0,0-3.4,3.4v28a3.4,3.4,0,0,0,6.8,0V48A3.39,3.39,0,0,0,42.1,44.5Z"/><path class="cls-2" d="M59.2,44.5a3.37,3.37,0,0,0-3.4,3.4v28a3.4,3.4,0,1,0,6.8,0V48A3.46,3.46,0,0,0,59.2,44.5Z"/><path class="cls-2" d="M85.2,86.2V28.8h3.4a3.4,3.4,0,1,0,0-6.8H71.2V16.1A10.07,10.07,0,0,0,61.1,6H39.7A10.07,10.07,0,0,0,29.6,16.1V22H11.4a3.4,3.4,0,0,0,0,6.8h4.2V86.2A15.83,15.83,0,0,0,31.4,102h38A15.83,15.83,0,0,0,85.2,86.2Z"/><path class="cls-2" d="M36.4,16.1a3.33,3.33,0,0,1,3.3-3.3H61.1a3.33,3.33,0,0,1,3.3,3.3V22h-28Z"/><path class="cls-2" d="M22.4,86.2V29.4h56V86.2a9,9,0,0,1-9,9h-38A9,9,0,0,1,22.4,86.2Z"/></svg>