<?xml version="1.0" encoding="utf-8"?>
<!-- Generator: Adobe Illustrator 22.1.0, SVG Export Plug-In . SVG Version: 6.00 Build 0)  -->
<svg version="1.1" xmlns="http://www.w3.org/2000/svg" xmlns:xlink="http://www.w3.org/1999/xlink" x="0px" y="0px"
	 viewBox="0 0 100 102" style="enable-background:new 0 0 100 102;" xml:space="preserve">
<style type="text/css">
	.st0{fill:#FFFFFF;}
	.st1{fill:#213A6C;}
	.st2{fill:#E87479;}
	.st3{fill:#9CC8CB;}
	.st4{fill:#FFD977;}
</style>
<g id="Calque_1">
	<g id="Calque_3">
		<polygon class="st0" points="21.3,91.8 21.3,12.8 23.8,11.5 65.8,11.3 79.8,24.8 79.3,90.8 76.7,91.8 		"/>
	</g>
</g>
<g id="Calque_2">
	<g>
		<g>
			<rect x="79.6" y="46.4" transform="matrix(0.7071 -0.7072 0.7072 0.7071 -12.7448 72.0831)" class="st1" width="2" height="10"/>
		</g>
		<g>
			<path class="st1" d="M62.5,66.6c-0.8,0.8-0.8,2.1,0,2.8l0.1,0.1c0.8,0.8,2.1,0.8,2.8,0l2.7-2.7l11.1-11.1l1.4-1.4l-1.4-1.4
				l-0.1-0.1l-1.4-1.4l-1.4,1.4L62.5,66.6z"/>
		</g>
		<g>
			<path class="st1" d="M81.9,55.7L81.9,55.7L81.2,55l-0.7,0.7L68.7,67.5l-3.4,3.4c-0.3,0.3-0.3,0.7-0.2,1L61.4,73L59,70.6l1.1-3.7
				c0.4,0.1,0.8,0.1,1.1-0.2l3.4-3.4l0,0l12.6-12.6L76.5,50l0,0l0,0l-0.7-0.7L63.1,61.9l0,0l-3.4,3.4c0,0,0,0.1-0.1,0.1
				c-0.1,0.1-0.2,0.2-0.2,0.3l-2.7,9c-0.1,0.2,0,0.4,0.1,0.5s0.3,0.2,0.5,0.1l9-2.7l0,0c0.1,0,0.3-0.1,0.4-0.2l3.4-3.4L82,57.1
				l0.7-0.7L81.9,55.7L81.9,55.7z"/>
		</g>
		<g>
			<path class="st1" d="M88.6,47.7l-4.2-4.2c-0.8-0.8-2.1-0.8-2.8,0l-1.7,1.7l0,0l-1.4,1.4l1.4,1.4l4.2,4.2l1.4,1.4l1.4-1.4l0.8-0.8
				l0.8-0.8C89.4,49.7,89.4,48.4,88.6,47.7z"/>
		</g>
	</g>
	<g>
		<g>
			<g>
				<path class="st1" d="M80.5,39.7V24.1c0-0.1,0-0.1,0-0.2c0-0.5-0.2-0.9-0.6-1.2L71,13.8l-4.5-4.5c-0.1-0.1-0.2-0.2-0.3-0.2h-0.1
					C66,9,65.7,8.9,65.5,8.9H23c-1.9,0-3.5,1.6-3.5,3.5v76.1c0,1.9,1.6,3.5,3.5,3.5h54c1.9,0,3.5-1.6,3.5-3.5V63.4l-3,3v22.1
					c0,0.3-0.2,0.5-0.5,0.5H23c-0.3,0-0.5-0.2-0.5-0.5V12.4c0-0.3,0.2-0.5,0.5-0.5h41v10c0,1.9,1.6,3.5,3.5,3.5h10v17.3L80.5,39.7z
					 M67,21.9V14l2.4,2.4l6,6h-7.9C67.2,22.4,67,22.2,67,21.9z"/>
			</g>
		</g>
		<g>
			<g>
				<path class="st2" d="M38.1,25.9h20.3c1.5,0,2.7-1.2,2.7-2.7s-1.2-2.7-2.7-2.7H38.1c-1.5,0-2.7,1.2-2.7,2.7S36.6,25.9,38.1,25.9z
					"/>
			</g>
		</g>
		<g>
			<g>
				<path class="st3" d="M61.1,58.1c0-1.5-1.2-2.7-2.7-2.7H38.1c-1.5,0-2.7,1.2-2.7,2.7s1.2,2.7,2.7,2.7h20.3
					C59.9,60.8,61.1,59.6,61.1,58.1z"/>
			</g>
		</g>
		<g>
			<g>
				<path class="st2" d="M70.1,32.1h-32c-1.5,0-2.7,1.2-2.7,2.7s1.2,2.7,2.7,2.7h32c1.5,0,2.7-1.2,2.7-2.7
					C72.8,33.3,71.6,32.1,70.1,32.1z"/>
			</g>
		</g>
		<g>
			<g>
				<path class="st4" d="M72.8,46.5c0-1.5-1.2-2.7-2.7-2.7h-32c-1.5,0-2.7,1.2-2.7,2.7s1.2,2.7,2.7,2.7h32
					C71.6,49.1,72.8,47.9,72.8,46.5z"/>
			</g>
		</g>
		<g>
			<path class="st1" d="M31.5,26.9h-5.4c-0.6,0-1-0.4-1-1v-5.4c0-0.6,0.4-1,1-1h5.4c0.6,0,1,0.4,1,1v5.4
				C32.5,26.4,32,26.9,31.5,26.9z M27.1,24.9h3.4v-3.4h-3.4V24.9z"/>
		</g>
		<path class="st1" d="M31.5,31.1h-5.4c-0.6,0-1,0.4-1,1v5.4c0,0.6,0.4,1,1,1h5.4c0.6,0,1-0.4,1-1v-5.4C32.5,31.6,32,31.1,31.5,31.1
			z"/>
		<g>
			<path class="st1" d="M31.5,50.1h-5.4c-0.6,0-1-0.4-1-1v-5.4c0-0.6,0.4-1,1-1h5.4c0.6,0,1,0.4,1,1v5.4
				C32.5,49.7,32,50.1,31.5,50.1z M27.1,48.1h3.4v-3.4h-3.4V48.1z"/>
		</g>
		<path class="st1" d="M31.5,54.4h-5.4c-0.6,0-1,0.4-1,1v5.4c0,0.6,0.4,1,1,1h5.4c0.6,0,1-0.4,1-1v-5.4C32.5,54.9,32,54.4,31.5,54.4
			z"/>
	</g>
</g>
</svg>
