<?xml version="1.0" encoding="utf-8"?>
<!-- Generator: Adobe Illustrator 22.1.0, SVG Export Plug-In . SVG Version: 6.00 Build 0)  -->
<svg version="1.1" xmlns="http://www.w3.org/2000/svg" xmlns:xlink="http://www.w3.org/1999/xlink" x="0px" y="0px"
	 viewBox="0 0 101.9 101.8" style="enable-background:new 0 0 101.9 101.8;" xml:space="preserve">
<style type="text/css">
	.st0{fill:none;stroke:#FFFFFF;stroke-width:2;stroke-miterlimit:10;}
	.st1{fill:#013A6C;}
	.st2{fill:#FFFFFF;}
</style>
<g id="Calque_2">
	<path id="SVGID_x5F_1_x5F_" class="st0" d="M20.2,58c-2.2-16.6,10-30.7,25.7-31.4c14.3-0.7,26.5,10.2,28.3,24.1
		c1.8,14-7.1,27.6-21.1,30.8C37.7,85,22.4,74.6,20.2,58z"/>
	<text>	<textPath  xlink:href="#SVGID_x5F_1_x5F_" startOffset="86.5088%">
<tspan  class="st1" style="font-family:'Roboto-Bold'; font-size:8px;">Je ne sais pas quoi faire</tspan>	</textPath>
</text>
</g>
<g id="Calque_1" xmlns:serif="http://www.serif.com/">
	<path class="st1" d="M58.8,37.6h1.6v1.3h-3.2v-1.2l1.5-1.4h-1.4V35h3.2v1.2L58.8,37.6z"/>
	<path class="st1" d="M65.4,41.1h1.9v1.2h-3.6v-1.1l1.9-2.5h-1.9v-1.2h3.6v1.1L65.4,41.1z"/>
	<path class="st1" d="M72.7,46h2.6v1.6h-4.8v-1.5l2.5-3.3h-2.5v-1.6h4.8v1.5L72.7,46z"/>
	<g id="XMLID_2_">
		<g>
			<path class="st1" d="M61.2,48.7c0.8,1.9,1.3,4.1,1.3,6.3c0,9-7.3,16.2-16.2,16.2S30,64,30,55c0-2.5,0.6-4.9,1.6-7l3.4,0.8
				c-0.2,0.2-0.2,0.5-0.2,0.8c0.1,0.4,0.5,0.7,0.9,0.7l0.2,1.5c-0.3,0.1-0.5,0.4-0.4,0.6c0.2,1.1,0.7,2,1.5,2.7
				c0.4,0.4,0.9,0.6,1.4,0.9c0.5,0.2,1.1,0.3,1.6,0.3c0.3,0,0.7,0,1-0.1c0.8-0.2,1.5-0.5,2-1.1c0.8-0.7,1.3-1.6,1.5-2.7
				c0,0,0-0.1,0-0.1l3.1,0c0,0,0,0.1,0,0.1c0.2,1.1,0.7,2,1.5,2.7c0.4,0.4,0.9,0.6,1.4,0.9c0.5,0.2,1.1,0.3,1.6,0.3
				c0.3,0,0.7,0,1-0.1c0.8-0.2,1.5-0.5,2-1.1c0.8-0.7,1.3-1.6,1.5-2.7c0.1-0.3-0.1-0.6-0.4-0.6c0,0-0.1,0-0.1,0l0.4-1.5h0
				c0.5,0.1,1-0.2,1.1-0.6c0.1-0.2,0-0.5-0.1-0.7L61.2,48.7z M50.8,62.7c0-2.7-2.1-4.9-4.6-4.9s-4.6,2.2-4.6,4.9
				c0,2.7,2.1,4.9,4.6,4.9S50.8,65.4,50.8,62.7z"/>
			<path class="st1" d="M61.2,48.7l-3.6,0.2c-0.1-0.2-0.3-0.4-0.6-0.5l-6-1.6c-0.5-0.1-1,0.2-1.1,0.6c-0.1,0.5,0.2,1,0.6,1.1l6,1.6
				l-0.4,1.5c-0.2,0-0.5,0.2-0.5,0.4c-0.3,0.7-0.8,1.2-1.5,1.6c-0.2,0.1-0.5,0.2-0.8,0.3c-0.4,0.1-0.8,0.2-1.2,0.2
				c-0.3,0-0.7,0-1-0.1c-0.3-0.1-0.7-0.2-1-0.4c-0.6-0.4-1.2-0.9-1.5-1.6c-0.1-0.3-0.4-0.5-0.6-0.4c-0.2,0.1-0.4,0.3-0.4,0.5l-3.1,0
				c0-0.2-0.2-0.5-0.4-0.5c-0.3-0.1-0.6,0.1-0.6,0.4c-0.3,0.7-0.8,1.2-1.5,1.6c-0.2,0.1-0.5,0.2-0.8,0.3c-0.4,0.1-0.8,0.2-1.2,0.2
				c-0.3,0-0.7,0-1-0.1c-0.3-0.1-0.7-0.2-1-0.4c-0.6-0.4-1.2-0.9-1.5-1.6c-0.1-0.3-0.4-0.5-0.6-0.4l-0.2-1.5c0.1,0,0.2,0,0.2,0
				l6-1.6c0.5-0.1,0.8-0.6,0.6-1.1c-0.1-0.5-0.6-0.8-1.1-0.6l-6,1.6c-0.2,0-0.4,0.2-0.5,0.3L31.6,48c2.6-5.4,8.2-9.2,14.6-9.2
				C53,38.8,58.7,42.9,61.2,48.7z"/>
			<path class="st1" d="M46.3,37c10,0,18.1,8.1,18.1,18.1c0,10-8.1,18.1-18.1,18.1S28.2,65,28.2,55C28.2,45.1,36.3,37,46.3,37z
				 M62.5,55c0-2.2-0.5-4.4-1.3-6.3c-2.5-5.8-8.2-9.9-14.9-9.9c-6.4,0-12,3.8-14.6,9.2c-1,2.1-1.6,4.5-1.6,7c0,9,7.3,16.2,16.2,16.2
				S62.5,64,62.5,55z"/>
			<path class="st2" d="M57.6,48.9c0.1,0.2,0.1,0.4,0.1,0.7c-0.1,0.5-0.6,0.8-1.1,0.6h0l-6-1.6c-0.5-0.1-0.8-0.6-0.6-1.1
				c0.1-0.5,0.6-0.8,1.1-0.6l6,1.6C57.2,48.6,57.4,48.7,57.6,48.9z"/>
			<path class="st2" d="M56.2,51.8c0.3,0.1,0.4,0.4,0.4,0.6c-0.2,1.1-0.7,2-1.5,2.7c-0.6,0.5-1.2,0.9-2,1.1c-0.3,0.1-0.6,0.1-1,0.1
				c-0.6,0-1.1-0.1-1.6-0.3c-0.5-0.2-1-0.5-1.4-0.9c-0.8-0.7-1.3-1.6-1.5-2.7c0,0,0-0.1,0-0.1c0-0.2,0.2-0.4,0.4-0.5
				c0.3-0.1,0.6,0.1,0.6,0.4c0.3,0.7,0.8,1.2,1.5,1.6c0.3,0.2,0.6,0.3,1,0.4c0.3,0.1,0.7,0.1,1,0.1c0.4,0,0.8,0,1.2-0.2
				c0.3-0.1,0.5-0.2,0.8-0.3c0.6-0.4,1.2-0.9,1.5-1.6c0.1-0.2,0.3-0.4,0.5-0.4C56.1,51.7,56.2,51.7,56.2,51.8z"/>
			<path class="st2" d="M46.3,57.8c2.5,0,4.6,2.2,4.6,4.9c0,2.7-2.1,4.9-4.6,4.9s-4.6-2.2-4.6-4.9C41.7,59.9,43.7,57.8,46.3,57.8z
				 M49,62.7c0-1.7-1.2-3-2.8-3c-1.5,0-2.8,1.4-2.8,3c0,1.7,1.2,3,2.8,3C47.8,65.7,49,64.3,49,62.7z"/>
			<path class="st2" d="M46.3,59.6c1.5,0,2.8,1.4,2.8,3c0,1.7-1.2,3-2.8,3c-1.5,0-2.8-1.4-2.8-3C43.5,61,44.7,59.6,46.3,59.6z"/>
			<path class="st2" d="M44.6,52.3c0,0,0,0.1,0,0.1c-0.2,1.1-0.7,2-1.5,2.7c-0.6,0.5-1.2,0.9-2,1.1c-0.3,0.1-0.6,0.1-1,0.1
				c-0.6,0-1.1-0.1-1.6-0.3c-0.5-0.2-1-0.5-1.4-0.9c-0.8-0.7-1.3-1.6-1.5-2.7c-0.1-0.3,0.1-0.6,0.4-0.6c0.3-0.1,0.6,0.1,0.6,0.4
				c0.3,0.7,0.8,1.2,1.5,1.6c0.3,0.2,0.6,0.3,1,0.4c0.3,0.1,0.7,0.1,1,0.1c0.4,0,0.8,0,1.2-0.2c0.3-0.1,0.5-0.2,0.8-0.3
				c0.6-0.4,1.2-0.9,1.5-1.6c0.1-0.3,0.4-0.5,0.6-0.4C44.4,51.8,44.6,52,44.6,52.3z"/>
			<path class="st2" d="M42.7,47.5c0.1,0.5-0.2,1-0.6,1.1l-6,1.6c-0.1,0-0.2,0-0.2,0c-0.4,0-0.8-0.3-0.9-0.7c-0.1-0.3,0-0.6,0.2-0.8
				c0.1-0.2,0.3-0.3,0.5-0.3l6-1.6C42.1,46.7,42.6,47,42.7,47.5z"/>
		</g>
	</g>
</g>
</svg>
