<?xml version="1.0" encoding="utf-8"?>
<!-- Generator: Adobe Illustrator 22.1.0, SVG Export Plug-In . SVG Version: 6.00 Build 0)  -->
<svg version="1.1" xmlns="http://www.w3.org/2000/svg" xmlns:xlink="http://www.w3.org/1999/xlink" x="0px" y="0px"
	 viewBox="0 0 80.4 100.6" style="enable-background:new 0 0 80.4 100.6;" xml:space="preserve">
<style type="text/css">
	.st0{fill:#FEDDA8;}
	.st1{fill:#FFFFFF;}
	.st2{fill:#213A6C;}
	.st3{fill:#E87479;}
	.st4{fill:#9CC8CB;}
	.st5{fill:#FFD977;}
	.st6{fill:#9AA3B1;stroke:#FFFFFF;stroke-width:0.25;stroke-miterlimit:10;}
</style>
<g id="Calque_2">
	<path class="st0" d="M68,96.6H11.9c-3.1,0-5.7-2.6-5.7-5.7V11.2c0-3.1,2.6-5.7,5.7-5.7H68c3.1,0,5.7,2.6,5.7,5.7v79.7
		C73.7,94,71.1,96.6,68,96.6z"/>
</g>
<g id="Calque_3">
	<polygon class="st1" points="11,90.8 11,11.8 13.5,10.5 55.5,10.3 69.5,23.8 69,89.8 66.4,90.8 	"/>
</g>
<g id="Calque_1">
	<g>
		<g>
			<rect x="70.1" y="47" transform="matrix(0.7071 -0.7072 0.7072 0.7071 -15.9519 65.502)" class="st2" width="2" height="10"/>
		</g>
		<g>
			<path class="st2" d="M53,67.2c-0.8,0.8-0.8,2.1,0,2.8l0.1,0.1c0.8,0.8,2.1,0.8,2.8,0l2.7-2.7l11.1-11.1l1.4-1.4l-1.4-1.4
				l-0.1-0.1L68.2,52l-1.4,1.4L53,67.2z"/>
		</g>
		<g>
			<path class="st2" d="M72.4,56.3L72.4,56.3l-0.7-0.7L71,56.3L59.2,68.1l-3.4,3.4c-0.3,0.3-0.3,0.7-0.2,1l-3.7,1.1l-2.4-2.4
				l1.1-3.7c0.4,0.1,0.8,0.1,1.1-0.2l3.4-3.4l0,0l12.6-12.6L67,50.6l0,0l0,0l-0.7-0.7L53.6,62.5l0,0l-3.4,3.4c0,0,0,0.1-0.1,0.1
				c-0.1,0.1-0.2,0.2-0.2,0.3l-2.7,9c-0.1,0.2,0,0.4,0.1,0.5s0.3,0.2,0.5,0.1l9-2.7l0,0c0.1,0,0.3-0.1,0.4-0.2l3.4-3.4l11.9-11.9
				l0.7-0.7L72.4,56.3L72.4,56.3z"/>
		</g>
		<g>
			<path class="st2" d="M79.1,48.3l-4.2-4.2c-0.8-0.8-2.1-0.8-2.8,0l-1.7,1.7l0,0L69,47.2l1.4,1.4l4.2,4.2l1.4,1.4l1.4-1.4l0.8-0.8
				l0.8-0.8C79.9,50.3,79.9,49,79.1,48.3z"/>
		</g>
	</g>
	<g>
		<g>
			<g>
				<path class="st2" d="M71,44.3V24.7c0-0.1,0-0.1,0-0.2c0-0.5-0.2-0.9-0.6-1.2l-8.9-8.9L57,9.9c-0.1-0.1-0.2-0.2-0.3-0.2h-0.1
					c-0.1-0.1-0.4-0.2-0.6-0.2H13.5c-1.9,0-3.5,1.6-3.5,3.5v76.1c0,1.9,1.6,3.5,3.5,3.5h54c1.9,0,3.5-1.6,3.5-3.5V60l-2,2v27.1
					c-0.6,1.4-0.7,1.6-1.5,1.5h-54c-1.6,0.3-2.2-0.6-2.5-1.5V13c0-1.2,0.6-2.1,2.5-2.5h41v12c0,1.9,1.6,3.5,3.5,3.5h11v21.3L71,44.3
					z M56.5,22.5v-9.9l3.4,3.4l8.1,7.9L58,24C57.7,23,57.5,22.8,56.5,22.5z"/>
			</g>
		</g>
		<g>
			<g>
				<path class="st3" d="M28.6,26.5h20.3c1.5,0,2.7-1.2,2.7-2.7s-1.2-2.7-2.7-2.7H28.6c-1.5,0-2.7,1.2-2.7,2.7S27.1,26.5,28.6,26.5z
					"/>
			</g>
		</g>
		<g>
			<g>
				<path class="st4" d="M51.6,58.7c0-1.5-1.2-2.7-2.7-2.7H28.6c-1.5,0-2.7,1.2-2.7,2.7s1.2,2.7,2.7,2.7h20.3
					C50.4,61.4,51.6,60.2,51.6,58.7z"/>
			</g>
		</g>
		<g>
			<g>
				<path class="st5" d="M60.6,32.7h-32c-1.5,0-2.7,1.2-2.7,2.7s1.2,2.7,2.7,2.7h32c1.5,0,2.7-1.2,2.7-2.7S62.1,32.7,60.6,32.7z"/>
			</g>
		</g>
		<g>
			<g>
				<path class="st3" d="M63.3,47.1c0-1.5-1.2-2.7-2.7-2.7h-32c-1.5,0-2.7,1.2-2.7,2.7s1.2,2.7,2.7,2.7h32
					C62.1,49.7,63.3,48.5,63.3,47.1z"/>
			</g>
		</g>
		<g>
			<path class="st2" d="M22,27.5h-5.4c-0.6,0-1-0.4-1-1v-5.4c0-0.6,0.4-1,1-1H22c0.6,0,1,0.4,1,1v5.4C23,27,22.5,27.5,22,27.5z
				 M17.6,25.5H21v-3.4h-3.4V25.5z"/>
		</g>
		<path class="st2" d="M22,31.7h-5.4c-0.6,0-1,0.4-1,1v5.4c0,0.6,0.4,1,1,1H22c0.6,0,1-0.4,1-1v-5.4C23,32.2,22.5,31.7,22,31.7z"/>
		<g>
			<path class="st2" d="M22,50.7h-5.4c-0.6,0-1-0.4-1-1v-5.4c0-0.6,0.4-1,1-1H22c0.6,0,1,0.4,1,1v5.4C23,50.3,22.5,50.7,22,50.7z
				 M17.6,48.7H21v-3.4h-3.4V48.7z"/>
		</g>
		<path class="st2" d="M22,55h-5.4c-0.6,0-1,0.4-1,1v5.4c0,0.6,0.4,1,1,1H22c0.6,0,1-0.4,1-1V56C23,55.5,22.5,55,22,55z"/>
	</g>
	<path class="st6" d="M29.5,14.3H50v-8c0,0-9.3-7.4-20.5-0.6V14.3z"/>
</g>
</svg>
