<svg id="Calque_1" data-name="Calque 1" xmlns="http://www.w3.org/2000/svg" viewBox="0 0 100 98"><defs><style>.cls-1{fill:#213a6c;}</style></defs><title>logo_Delete</title><path class="cls-1" d="M82,23.4H65V19.7c0-2.6-2.4-4.6-5.4-4.6H40.4c-3,0-5.4,2-5.4,4.6v3.7H18a3,3,0,0,0,0,6h3.7L25.4,76a10,10,0,0,0,10,9.9H64.5a10,10,0,0,0,10-9.9l3.8-46.5H82a3,3,0,0,0,3-3A3,3,0,0,0,82,23.4ZM41,21.1H59v2.3H41Zm1.2,48.7h-.1a3.06,3.06,0,0,1-3-2.9L38,42.5a2.89,2.89,0,0,1,2.9-3.1H41a3.06,3.06,0,0,1,3,2.9l1.1,24.4A3.08,3.08,0,0,1,42.2,69.8Zm18.7-2.9a3.06,3.06,0,0,1-3,2.9h-.1a3.08,3.08,0,0,1-2.9-3.1L56,42.3a3.06,3.06,0,0,1,3-2.9h.1A3.08,3.08,0,0,1,62,42.5Z"/></svg>