<?xml version="1.0" encoding="utf-8"?>
<!-- Generator: Adobe Illustrator 22.1.0, SVG Export Plug-In . SVG Version: 6.00 Build 0)  -->
<svg version="1.1" id="Calque_1" xmlns="http://www.w3.org/2000/svg" xmlns:xlink="http://www.w3.org/1999/xlink" x="0px" y="0px"
	 viewBox="0 0 100 102" style="enable-background:new 0 0 100 102;" xml:space="preserve">
<style type="text/css">
	.st0{enable-background:new    ;}
	.st1{fill:#213A6C;}
</style>
<g class="st0">
	<g>
		<g>
			<path class="st1" d="M67.6,22.6L23.8,66.4c-2.5,2.5-2.5,6.7,0,9.2c2.5,2.5,6.7,2.5,9.2,0l43.8-43.8L67.6,22.6z M65.1,20.1
				l-4.9-4.9c-0.1,0.1-0.3,0.2-0.4,0.3L16,59.4c-1.4,1.4-1.4,3.6,0,4.9c1.4,1.4,3.6,1.4,5,0l43.8-43.8C64.9,20.4,65,20.2,65.1,20.1z
				 M79.2,34.2c-0.1,0.1-0.3,0.2-0.4,0.3L35,78.4c-1.4,1.4-1.4,3.6,0,4.9s3.6,1.4,5,0l43.8-43.8c0.1-0.1,0.2-0.3,0.3-0.4L79.2,34.2z
				"/>
		</g>
	</g>
</g>
<g class="st0">
	<g>
		<g>
			<path class="st1" d="M30,82c-14,0-12-12-12-12c-6,0-7-4-7-4L5,95l30-7C29.4,86.8,30,82,30,82z"/>
		</g>
	</g>
</g>
<g class="st0">
	<g>
		<g>
			<path class="st1" d="M91.9,18.3L81.2,7.6C77.5,4,71.6,4,67.9,7.6l-4.6,4.6l24,24l4.6-4.6C95.6,27.9,95.6,22,91.9,18.3z"/>
		</g>
	</g>
</g>
</svg>
