<?xml version="1.0" encoding="utf-8"?>
<!-- Generator: Adobe Illustrator 22.1.0, SVG Export Plug-In . SVG Version: 6.00 Build 0)  -->
<svg version="1.1" xmlns="http://www.w3.org/2000/svg" xmlns:xlink="http://www.w3.org/1999/xlink" x="0px" y="0px"
	 viewBox="0 0 57.6 57.6" style="enable-background:new 0 0 57.6 57.6;" xml:space="preserve">
<style type="text/css">
	.st0{display:none;}
	.st1{display:inline;fill:#013A6C;}
	.st2{fill:#013A6C;}
	.st3{fill:#FFFFFF;}
</style>
<g id="Calque_2" class="st0">
	<circle class="st1" cx="29" cy="28.6" r="48.8"/>
</g>
<g id="Calque_1">
	<g id="XMLID_1_">
		<g>
			<polygon class="st2" points="54.8,15.9 54.8,17.5 50,17.5 50,16 52.5,12.7 50,12.7 50,11.1 54.8,11.1 54.8,12.6 52.2,15.9 			"/>
			<polygon class="st2" points="46.8,11 46.8,12.2 43.2,12.2 43.2,11.1 45.1,8.6 43.2,8.6 43.2,7.4 46.8,7.4 46.8,8.5 44.9,11 			
				"/>
			<path class="st2" d="M42.7,23.6c0.8,1.9,1.3,4.1,1.3,6.3c0,9-7.3,16.2-16.2,16.2c-2.2,0-4.4-0.5-6.3-1.3
				c-5.8-2.5-9.9-8.2-9.9-14.9c0-2.5,0.6-4.9,1.6-7l3.3,0.8c-0.2,0.2-0.2,0.5-0.2,0.8c0.1,0.4,0.5,0.7,0.9,0.7l0.2,1.5
				c0,0-0.1,0-0.1,0c-0.3,0.1-0.4,0.4-0.3,0.6c0.2,1.1,0.7,2,1.5,2.7c0.4,0.4,0.9,0.6,1.4,0.9c0.4,0.2,0.8,0.2,1.3,0.3
				c0.1,0,0.3,0,0.4,0c0.1,0,0.3,0,0.4,0c0.2,0,0.4,0,0.6-0.1c0.3-0.1,0.5-0.2,0.8-0.3c0.1,0,0.2-0.1,0.3-0.2
				c0.2-0.1,0.3-0.2,0.5-0.3c0,0,0,0,0,0c0.1-0.1,0.3-0.2,0.4-0.4c0.8-0.7,1.3-1.6,1.5-2.7v-0.1h3v0.1c0.2,1.1,0.7,2,1.5,2.7
				c0.4,0.4,0.9,0.7,1.4,0.9c0.1,0,0.3,0.1,0.4,0.1c0.3,0.1,0.5,0.1,0.8,0.1c0.1,0,0.2,0,0.4,0c0.4,0,0.7,0,1-0.1
				c0.8-0.2,1.5-0.5,2-1.1c0.8-0.7,1.3-1.6,1.5-2.7c0.1-0.3-0.1-0.6-0.4-0.6c0-0.1,0-0.1-0.1-0.1l0.4-1.4c0.1,0,0.1,0,0.2,0
				c0.1,0,0.2,0,0.4-0.1c0,0,0.1,0,0.1,0c0.3-0.1,0.5-0.3,0.5-0.6c0-0.3,0-0.4-0.1-0.6L42.7,23.6z M32.4,37.6c0-2.7-2.1-4.9-4.6-4.9
				c0,0,0,0-0.1,0c-0.2,0-0.3,0-0.5,0c-0.4,0-0.9,0.2-1.3,0.3c0,0,0,0-0.1,0c-1.6,0.7-2.8,2.5-2.8,4.5c0,2.7,2.1,4.9,4.6,4.9
				c0,0,0,0,0,0c0,0,0,0,0.1,0C30.3,42.5,32.4,40.3,32.4,37.6z"/>
			<path class="st2" d="M42.7,23.6l-3.6,0.3c0,0,0-0.1,0-0.1L42.7,23.6z"/>
			<path class="st2" d="M42.7,23.6l-3.6,0.2c-0.1-0.2-0.3-0.4-0.6-0.5l-6-1.6c-0.5-0.1-1,0.2-1.1,0.6c0,0.2,0,0.4,0,0.6
				c0,0,0,0.1,0,0.1c0.1,0.3,0.3,0.5,0.6,0.5l5.9,1.6l-0.4,1.4c-0.2,0-0.5,0.2-0.5,0.4c-0.3,0.7-0.8,1.2-1.5,1.6
				c-0.2,0.1-0.5,0.2-0.8,0.3C34.4,28.9,34,29,33.6,29c-0.3,0-0.7,0-1-0.1c-0.3-0.1-0.7-0.2-1-0.4c-0.6-0.4-1.2-0.9-1.5-1.6
				c-0.1-0.3-0.4-0.5-0.6-0.4c-0.2,0.1-0.4,0.3-0.4,0.5h-3c0-0.1-0.1-0.1-0.1-0.2c0,0,0,0,0,0c-0.1-0.2-0.2-0.3-0.4-0.3
				c-0.3-0.1-0.6,0.1-0.6,0.4c-0.3,0.7-0.8,1.2-1.5,1.6c-0.2,0.1-0.5,0.2-0.8,0.3c-0.4,0.1-0.8,0.2-1.2,0.2c-0.3,0-0.7,0-1-0.1
				c-0.3-0.1-0.7-0.2-1-0.4c-0.5-0.3-1-0.8-1.4-1.3c0,0,0,0,0-0.1v0c0-0.1-0.1-0.2-0.2-0.3c-0.1-0.2-0.4-0.4-0.5-0.3l-0.2-1.4
				c0.1,0,0.1,0,0.2,0c0,0,0.1,0,0.2,0l6-1.6c0.4-0.1,0.7-0.6,0.6-1.1c-0.1-0.4-0.4-0.7-0.7-0.7c0,0,0,0,0,0c-0.2-0.1-0.4-0.1-0.6,0
				l-6,1.6c-0.2,0-0.4,0.2-0.5,0.3L13.2,23c0,0,0,0,0,0c2.4-5.1,7.5-8.7,13.4-9.2c0.4,0,0.8,0,1.2,0c0.2,0,0.4,0,0.5,0
				c0.2,0,0.4,0,0.6,0c2.7,0.2,5.2,1.1,7.4,2.4C39.1,17.9,41.3,20.6,42.7,23.6z"/>
			<path class="st2" d="M27.8,11.9c10,0,18.1,8.1,18.1,18.1s-8.1,18.1-18.1,18.1S9.7,39.9,9.7,29.9C9.7,20,17.8,11.9,27.8,11.9z
				 M44,29.9c0-2.2-0.5-4.4-1.3-6.3c-1.3-3.1-3.6-5.7-6.4-7.4c-2.2-1.4-4.7-2.2-7.4-2.4c-0.2,0-0.4,0-0.6,0c-0.2,0-0.3,0-0.5,0
				c-0.4,0-0.8,0-1.2,0c-5.9,0.4-11.1,4.1-13.5,9.2c-1,2.1-1.6,4.5-1.6,7c0,6.8,4.2,12.5,10,14.9c1.9,0.8,4.1,1.3,6.3,1.3
				C36.7,46.1,44,38.9,44,29.9z"/>
			<polygon class="st2" points="40,4.9 40,6.1 38.3,7.5 39.9,7.5 39.9,8.8 36.7,8.8 36.7,7.6 38.2,6.2 36.8,6.2 36.8,4.9 			"/>
			<path class="st2" d="M39.1,23.9c0.1,0.2,0.1,0.4,0.1,0.6c-0.1,0.3-0.3,0.5-0.5,0.6c0.2-0.1,0.4-0.3,0.5-0.5
				c0.1-0.2,0-0.5-0.1-0.7L39.1,23.9z"/>
			<path class="st3" d="M39.1,23.9l-0.1,0c0.1,0.2,0.2,0.5,0.1,0.7c-0.1,0.2-0.2,0.4-0.5,0.5c0,0-0.1,0-0.1,0c-0.1,0-0.3,0-0.5-0.1
				l-0.1,0l0-0.1l-6-1.6c-0.2-0.1-0.4-0.2-0.5-0.5c0,0,0-0.1,0-0.1c0-0.1,0-0.3,0-0.5c0.1-0.5,0.6-0.8,1.1-0.6l6,1.6
				C38.7,23.5,38.9,23.6,39.1,23.9C39.1,23.9,39.1,23.9,39.1,23.9z"/>
			<path class="st2" d="M38.5,23.3c0.3,0.1,0.5,0.3,0.6,0.5c-0.2-0.2-0.4-0.3-0.5-0.4l-6-1.6c-0.5-0.2-1,0.1-1.1,0.6
				c-0.1,0.2-0.1,0.3,0,0.5c-0.1-0.2-0.1-0.4,0-0.6c0.1-0.4,0.6-0.7,1.1-0.6L38.5,23.3z"/>
			<path class="st2" d="M38.1,25.1c0.2,0.1,0.3,0.1,0.5,0.1c-0.1,0-0.2,0.1-0.4,0.1c-0.1,0-0.1,0-0.2,0l-0.4,1.4c0,0,0,0,0,0.1
				c-0.2,0-0.4,0.2-0.5,0.4c-0.3,0.7-0.9,1.2-1.5,1.6c-0.3,0.1-0.5,0.2-0.8,0.3c-0.4,0.2-0.8,0.2-1.2,0.2c-0.3,0-0.7,0-1-0.1
				c-0.4-0.1-0.7-0.2-1-0.4c-0.7-0.4-1.2-0.9-1.5-1.6c0-0.3-0.3-0.5-0.6-0.4c-0.2,0.1-0.4,0.3-0.4,0.5h-3c0-0.1,0-0.1,0-0.2h3
				c0-0.2,0.2-0.4,0.4-0.5c0.2-0.1,0.5,0.1,0.6,0.4c0.3,0.7,0.9,1.2,1.5,1.6c0.3,0.2,0.7,0.3,1,0.4c0.3,0.1,0.7,0.1,1,0.1
				c0.4,0,0.8-0.1,1.2-0.2c0.3-0.1,0.6-0.2,0.8-0.3c0.7-0.4,1.2-0.9,1.5-1.6c0-0.2,0.3-0.4,0.5-0.4l0.4-1.4L38.1,25.1z"/>
			<path class="st2" d="M38,25L38,25l-5.9-1.5c-0.3-0.1-0.5-0.3-0.6-0.5c0.1,0.2,0.3,0.4,0.5,0.5L38,25z"/>
			<path class="st3" d="M37.7,26.7c0.3,0.1,0.4,0.4,0.4,0.6c-0.2,1.1-0.7,2-1.5,2.7c-0.6,0.5-1.2,0.9-2,1.1c-0.3,0.1-0.6,0.1-1,0.1
				c-0.1,0-0.3,0-0.4,0c-0.3,0-0.5-0.1-0.8-0.1c-0.1,0-0.3-0.1-0.4-0.1c-0.5-0.3-1-0.5-1.4-0.9c-0.8-0.7-1.3-1.6-1.5-2.7v-0.1
				c0-0.2,0.2-0.4,0.4-0.5c0.3-0.1,0.6,0.1,0.6,0.4c0.3,0.7,0.8,1.2,1.5,1.6c0.3,0.2,0.6,0.3,1,0.4c0.3,0.1,0.7,0.1,1,0.1
				c0.4,0,0.8,0,1.2-0.2c0.3-0.1,0.5-0.2,0.8-0.3c0.6-0.4,1.2-0.9,1.5-1.6C37.2,26.9,37.4,26.7,37.7,26.7L37.7,26.7z"/>
			<path class="st3" d="M37.7,26.7L37.7,26.7C37.6,26.7,37.6,26.7,37.7,26.7C37.6,26.6,37.7,26.7,37.7,26.7z"/>
			<path class="st3" d="M32.4,31.1c0.3,0.1,0.5,0.1,0.8,0.1C32.9,31.2,32.6,31.1,32.4,31.1z"/>
			<path class="st2" d="M27.8,32.7c2.5,0,4.6,2.2,4.6,4.9c0,2.7-2.1,4.9-4.6,4.9c0,0,0,0-0.1,0c2.5,0,4.6-2.2,4.6-4.9
				C32.3,34.9,30.2,32.8,27.8,32.7C27.7,32.7,27.8,32.7,27.8,32.7z"/>
			<path class="st3" d="M27.7,32.7c2.5,0,4.6,2.2,4.6,4.9c0,2.7-2.1,4.9-4.6,4.9c-2.5,0-4.5-2.2-4.5-4.9c0-2.1,1.1-3.8,2.7-4.5
				c0,0,0,0,0.1,0c0.4-0.2,0.8-0.3,1.3-0.3C27.4,32.7,27.5,32.7,27.7,32.7z M29.3,40.1c0.8-0.5,1.3-1.5,1.3-2.5c0-1.6-1.3-3-2.8-3
				c-1,0-1.8,0.5-2.2,1.2c0,0-0.1,0.1-0.1,0.1c-0.4,0.5-0.6,1.1-0.6,1.8c0,1.7,1.2,3,2.8,3C28.3,40.6,28.8,40.4,29.3,40.1
				C29.3,40.1,29.3,40.1,29.3,40.1z"/>
			<path class="st2" d="M30.6,30c0.4,0.4,0.9,0.6,1.4,0.9C31.5,30.7,31,30.4,30.6,30z"/>
			<path class="st2" d="M30.6,37.5c0,1.1-0.5,2-1.3,2.5c0.7-0.5,1.2-1.5,1.2-2.4c0-1.7-1.2-3-2.8-3c-0.8,0-1.6,0.4-2.1,1.1
				c0.5-0.7,1.3-1.2,2.2-1.2C29.3,34.5,30.6,35.9,30.6,37.5z"/>
			<path class="st2" d="M27.7,34.6c1.6,0,2.8,1.3,2.8,3c0,1-0.5,1.9-1.2,2.4c0,0,0,0,0,0c-0.4,0.3-0.9,0.4-1.5,0.4
				c-1.5,0-2.8-1.4-2.8-3c0-0.6,0.2-1.2,0.5-1.6c0-0.1,0.1-0.1,0.1-0.1C26.1,35.1,26.8,34.6,27.7,34.6z"/>
			<path class="st2" d="M26.1,27.2v0.1c-0.2,1.1-0.7,2-1.5,2.7c-0.1,0.1-0.3,0.2-0.4,0.4c0.1-0.1,0.2-0.2,0.3-0.4
				c0.8-0.7,1.3-1.6,1.5-2.7v-0.1H26.1z"/>
			<path class="st3" d="M26,27c0,0.1,0,0.1,0,0.2H26v0.1c-0.2,1.1-0.7,2-1.5,2.7c-0.1,0.1-0.2,0.2-0.3,0.4c0,0,0,0,0,0
				c-0.1,0.1-0.3,0.2-0.5,0.3c-0.1,0.1-0.2,0.1-0.3,0.2c-0.3,0.1-0.5,0.2-0.9,0.3c-0.1,0.1-0.3,0.1-0.5,0.1c-0.1,0-0.3,0-0.4,0
				c-0.1,0-0.3,0-0.4,0c-0.4,0-0.8-0.1-1.2-0.3c-0.5-0.2-1-0.5-1.4-0.9c-0.8-0.7-1.3-1.6-1.5-2.7c-0.1-0.2,0-0.5,0.2-0.6
				c0.1,0,0.1,0,0.2,0c0.2,0,0.3,0,0.4,0.1c0,0,0,0.1,0.1,0.1c0,0.1,0.1,0.1,0.1,0.2v0c0,0,0,0,0,0.1c0.3,0.7,0.8,1.2,1.5,1.5
				c0.3,0.2,0.6,0.3,1,0.4c0.3,0.1,0.7,0.1,1,0.1c0.4,0,0.8,0,1.2-0.2c0.3-0.1,0.5-0.2,0.8-0.3c0.6-0.4,1.2-0.9,1.5-1.6
				c0.1-0.3,0.4-0.5,0.6-0.4c0.1,0,0.2,0,0.3,0.1c0,0,0,0,0,0C26,26.9,26,27,26,27L26,27z"/>
			<path class="st3" d="M26,27L26,27c-0.1,0-0.1-0.1-0.1-0.2C26,26.9,26,27,26,27z"/>
			<path class="st2" d="M25.9,26.9c-0.1-0.1-0.2-0.1-0.3-0.1c-0.2-0.1-0.5,0.1-0.6,0.4c-0.3,0.7-0.9,1.2-1.5,1.6
				c-0.3,0.1-0.5,0.2-0.8,0.3c-0.4,0.2-0.8,0.2-1.2,0.2c-0.3,0-0.7,0-1-0.1c-0.4-0.1-0.7-0.2-1-0.4c-0.7-0.4-1.2-0.9-1.5-1.5
				c0.3,0.6,0.9,1,1.4,1.3c0.3,0.2,0.7,0.3,1,0.4c0.3,0.1,0.7,0.1,1,0.1c0.4,0,0.8-0.1,1.2-0.2c0.3-0.1,0.6-0.2,0.8-0.3
				c0.7-0.4,1.2-0.9,1.5-1.6c0-0.3,0.3-0.5,0.6-0.4C25.7,26.5,25.9,26.7,25.9,26.9z"/>
			<path class="st2" d="M24.2,22.4c0.1,0.5-0.2,1-0.6,1.1l-6,1.6c-0.1,0-0.2,0-0.2,0c-0.1,0-0.1,0-0.2,0l0-0.1c0.1,0,0.2,0,0.2,0
				l6-1.6c0.5-0.1,0.8-0.6,0.6-1.1c-0.1-0.3-0.2-0.5-0.5-0.6C23.8,21.8,24.1,22.1,24.2,22.4z"/>
			<path class="st3" d="M24,22.3c0.2,0.5-0.1,1-0.6,1.1l-6,1.6c0,0-0.1,0-0.2,0l0,0.1c-0.3-0.1-0.6-0.3-0.7-0.7
				c-0.1-0.3,0-0.6,0.2-0.8c0.1-0.2,0.3-0.3,0.5-0.3l6-1.6c0.1,0,0.2,0,0.3,0c0,0,0,0,0,0C23.7,21.8,23.9,22,24,22.3z"/>
			<path class="st2" d="M23.5,21.7c-0.1,0-0.2,0-0.3,0l-6,1.6c-0.2,0-0.4,0.1-0.5,0.3c-0.2,0.2-0.3,0.5-0.2,0.8
				c0.1,0.3,0.4,0.6,0.7,0.7l0.2,1.4c0.2-0.1,0.4,0,0.5,0.3c-0.1-0.1-0.3-0.1-0.4-0.1c-0.1,0-0.1,0-0.2,0c0,0,0,0,0.1,0l-0.2-1.5
				c-0.4,0-0.8-0.3-0.9-0.7c0-0.3,0-0.6,0.2-0.8L13.2,23l3.2,0.7c0.1-0.1,0.3-0.3,0.5-0.3l6-1.6C23.1,21.7,23.3,21.7,23.5,21.7z"/>
			<path class="st3" d="M23.3,30.9c-0.2,0.1-0.5,0.2-0.8,0.3c-0.2,0.1-0.4,0.1-0.6,0.1c0.2,0,0.4,0,0.5-0.1
				C22.8,31.1,23.1,31,23.3,30.9z"/>
			<path class="st2" d="M26.6,13.8c-5.9,0.4-11,4.1-13.4,9.2c0,0,0,0,0,0l-0.1,0C15.5,17.8,20.6,14.2,26.6,13.8z"/>
			<path class="st3" d="M18.1,27.1c0-0.1-0.1-0.1-0.1-0.2c0-0.1,0-0.1-0.1-0.1C18,26.9,18.1,27,18.1,27.1z"/>
			<path class="st2" d="M11.6,29.9c0,6.8,4.1,12.5,9.9,14.9C15.6,42.4,11.5,36.7,11.6,29.9c-0.1-2.5,0.5-4.9,1.5-7l0.1,0
				C12.2,25.1,11.6,27.4,11.6,29.9z"/>
		</g>
	</g>
</g>
</svg>
